<?xml version="1.0" encoding="UTF-8" standalone="no" ?>
<!DOCTYPE svg PUBLIC "-//W3C//DTD SVG 1.1//EN" "http://www.w3.org/Graphics/SVG/1.1/DTD/svg11.dtd">
<svg xmlns="http://www.w3.org/2000/svg" xmlns:xlink="http://www.w3.org/1999/xlink" version="1.1" width="600" height="600" viewBox="0 0 600 600" xml:space="preserve">
<desc>Created with Fabric.js 4.6.0</desc>
<defs>
</defs>
<g transform="matrix(1 0 0 1 149.35 263.56)" id="Pa0YkY1BDJfXsU0l24ADE"  >
<path style="stroke: rgb(32,252,92); stroke-width: 0; stroke-dasharray: none; stroke-linecap: butt; stroke-dashoffset: 0; stroke-linejoin: miter; stroke-miterlimit: 4; fill: rgb(0,0,0); fill-rule: nonzero; opacity: 1;" vector-effect="non-scaling-stroke"  transform=" translate(-36.44, -36.44)" d="M 0 0 L 72.88629737609328 0 L 72.88629737609328 72.88629737609328 L 0 72.88629737609328 Z" stroke-linecap="round" />
</g>
<g transform="matrix(1 0 0 1 149.35 190.67)" id="RxBiOmahwL_Drh62ubBVi"  >
<path style="stroke: rgb(32,252,92); stroke-width: 0; stroke-dasharray: none; stroke-linecap: butt; stroke-dashoffset: 0; stroke-linejoin: miter; stroke-miterlimit: 4; fill: rgb(0,0,0); fill-rule: nonzero; opacity: 1;" vector-effect="non-scaling-stroke"  transform=" translate(-36.44, -36.44)" d="M 0 0 L 72.88629737609328 0 L 72.88629737609328 72.88629737609328 L 0 72.88629737609328 Z" stroke-linecap="round" />
</g>
<g transform="matrix(1 0 0 1 513.77 263.56)" id="kkY9ToRNcCo6opzDt4doe"  >
<path style="stroke: rgb(32,252,92); stroke-width: 0; stroke-dasharray: none; stroke-linecap: butt; stroke-dashoffset: 0; stroke-linejoin: miter; stroke-miterlimit: 4; fill: rgb(0,0,0); fill-rule: nonzero; opacity: 1;" vector-effect="non-scaling-stroke"  transform=" translate(-36.44, -36.44)" d="M 0 0 L 72.88629737609328 0 L 72.88629737609328 72.88629737609328 L 0 72.88629737609328 Z" stroke-linecap="round" />
</g>
<g transform="matrix(1 0 0 1 76.46 263.56)" id="JVIGUx2zdMilb2cP1DUAm"  >
<path style="stroke: rgb(32,252,92); stroke-width: 0; stroke-dasharray: none; stroke-linecap: butt; stroke-dashoffset: 0; stroke-linejoin: miter; stroke-miterlimit: 4; fill: rgb(0,0,0); fill-rule: nonzero; opacity: 1;" vector-effect="non-scaling-stroke"  transform=" translate(-36.44, -36.44)" d="M 0 0 L 72.88629737609328 0 L 72.88629737609328 72.88629737609328 L 0 72.88629737609328 Z" stroke-linecap="round" />
</g>
<g transform="matrix(-1 0 0 -1 222.24 336.45)" id="bQ-Kzf0em66YcxDswL5N9"  >
<path style="stroke: rgb(32,252,92); stroke-width: 0; stroke-dasharray: none; stroke-linecap: butt; stroke-dashoffset: 0; stroke-linejoin: miter; stroke-miterlimit: 4; fill: rgb(0,0,0); fill-rule: nonzero; opacity: 1;" vector-effect="non-scaling-stroke"  transform=" translate(-36.44, -36.44)" d="M 0 0 L 72.88629737609328 0 L 72.88629737609328 72.88629737609328 L 0 72.88629737609328 Z" stroke-linecap="round" />
</g>
<g transform="matrix(-1 0 0 -1 222.24 409.33)" id="ZcjKiyuhn7IpxzY-91TeF"  >
<path style="stroke: rgb(32,252,92); stroke-width: 0; stroke-dasharray: none; stroke-linecap: butt; stroke-dashoffset: 0; stroke-linejoin: miter; stroke-miterlimit: 4; fill: rgb(0,0,0); fill-rule: nonzero; opacity: 1;" vector-effect="non-scaling-stroke"  transform=" translate(-36.44, -36.44)" d="M 0 0 L 72.88629737609328 0 L 72.88629737609328 72.88629737609328 L 0 72.88629737609328 Z" stroke-linecap="round" />
</g>
<g transform="matrix(-1 0 0 -1 295.12 336.45)" id="jgEcBlHR_y5cj3LDOgCAd"  >
<path style="stroke: rgb(32,252,92); stroke-width: 0; stroke-dasharray: none; stroke-linecap: butt; stroke-dashoffset: 0; stroke-linejoin: miter; stroke-miterlimit: 4; fill: rgb(0,0,0); fill-rule: nonzero; opacity: 1;" vector-effect="non-scaling-stroke"  transform=" translate(-36.44, -36.44)" d="M 0 0 L 72.88629737609328 0 L 72.88629737609328 72.88629737609328 L 0 72.88629737609328 Z" stroke-linecap="round" />
</g>
<g transform="matrix(1 0 0 -1 440.88 336.44)" id="KidQPKCgQKVZt8Fs6QpgQ"  >
<path style="stroke: rgb(32,252,92); stroke-width: 0; stroke-dasharray: none; stroke-linecap: butt; stroke-dashoffset: 0; stroke-linejoin: miter; stroke-miterlimit: 4; fill: rgb(0,0,0); fill-rule: nonzero; opacity: 1;" vector-effect="non-scaling-stroke"  transform=" translate(-36.44, -36.44)" d="M 0 0 L 72.88629737609328 0 L 72.88629737609328 72.88629737609328 L 0 72.88629737609328 Z" stroke-linecap="round" />
</g>
<g transform="matrix(1 0 0 -1 440.88 409.32)" id="lHk4Qq01-z33iGhGl9t20"  >
<path style="stroke: rgb(32,252,92); stroke-width: 0; stroke-dasharray: none; stroke-linecap: butt; stroke-dashoffset: 0; stroke-linejoin: miter; stroke-miterlimit: 4; fill: rgb(0,0,0); fill-rule: nonzero; opacity: 1;" vector-effect="non-scaling-stroke"  transform=" translate(-36.44, -36.44)" d="M 0 0 L 72.88629737609328 0 L 72.88629737609328 72.88629737609328 L 0 72.88629737609328 Z" stroke-linecap="round" />
</g>
<g transform="matrix(1 0 0 -1 368 336.44)" id="yfy-YSq-8oSy8JnoKLGNk"  >
<path style="stroke: rgb(32,252,92); stroke-width: 0; stroke-dasharray: none; stroke-linecap: butt; stroke-dashoffset: 0; stroke-linejoin: miter; stroke-miterlimit: 4; fill: rgb(0,0,0); fill-rule: nonzero; opacity: 1;" vector-effect="non-scaling-stroke"  transform=" translate(-36.44, -36.44)" d="M 0 0 L 72.88629737609328 0 L 72.88629737609328 72.88629737609328 L 0 72.88629737609328 Z" stroke-linecap="round" />
</g>
<g transform="matrix(1 0 0 1 222.24 445.77)" id="KYe4s7LYzi50HKCm8SN37"  >
<path style="stroke: rgb(32,252,92); stroke-width: 0; stroke-dasharray: none; stroke-linecap: butt; stroke-dashoffset: 0; stroke-linejoin: miter; stroke-miterlimit: 4; fill: rgb(0,0,0); fill-rule: nonzero; opacity: 1;" vector-effect="non-scaling-stroke"  transform=" translate(-36.44, -36.44)" d="M 0 0 L 72.88629737609328 0 L 72.88629737609328 72.88629737609328 L 0 72.88629737609328 Z" stroke-linecap="round" />
</g>
<g transform="matrix(1 0 0 1 440.89 445.77)" id="YJuZTR2VH3JwTygkTm_8X"  >
<path style="stroke: rgb(32,252,92); stroke-width: 0; stroke-dasharray: none; stroke-linecap: butt; stroke-dashoffset: 0; stroke-linejoin: miter; stroke-miterlimit: 4; fill: rgb(0,0,0); fill-rule: nonzero; opacity: 1;" vector-effect="non-scaling-stroke"  transform=" translate(-36.44, -36.44)" d="M 0 0 L 72.88629737609328 0 L 72.88629737609328 72.88629737609328 L 0 72.88629737609328 Z" stroke-linecap="round" />
</g>
</svg>